<svg width="46" height="45" viewBox="0 0 46 45" fill="none" xmlns="http://www.w3.org/2000/svg">
<rect width="46" height="45" fill="#E89F71"/>
<path d="M35.6882 9.32762C35.5362 9.17651 35.3442 9.07189 35.1347 9.02605C34.9252 8.98022 34.7069 8.99508 34.5056 9.06889L9.72686 18.0684C9.51317 18.1494 9.32919 18.2934 9.19936 18.4812C9.06953 18.6691 9 18.892 9 19.1202C9 19.3485 9.06953 19.5714 9.19936 19.7593C9.32919 19.9471 9.51317 20.0911 9.72686 20.1721L19.4018 24.0306L26.5426 16.876L28.1307 18.4622L20.9561 25.628L24.8306 35.2913C24.9141 35.5006 25.0586 35.6801 25.2453 35.8064C25.4321 35.9328 25.6525 36.0002 25.8781 36C26.1057 35.9953 26.3266 35.9219 26.5115 35.7894C26.6965 35.6568 26.837 35.4714 26.9143 35.2575L35.9248 10.5088C36.0015 10.3098 36.02 10.0931 35.9781 9.88393C35.9363 9.6748 35.8357 9.48186 35.6882 9.32762Z" fill="white"/>
</svg>
